<?xml version="1.0" encoding="utf-8"?>
<!-- Generator: Adobe Illustrator 25.0.0, SVG Export Plug-In . SVG Version: 6.00 Build 0)  -->
<svg version="1.1" id="Layer_1_1_" xmlns="http://www.w3.org/2000/svg" xmlns:xlink="http://www.w3.org/1999/xlink" x="0px" y="0px"
	 viewBox="0 0 512 512" style="enable-background:new 0 0 512 512;" xml:space="preserve">
<style type="text/css">
	.st0{fill:#221E20;}
	.st1{fill:#FFFFFF;}
</style>
<g>
	<path class="st0" d="M183.5,375.6c-1.9-0.2-3.8-0.3-5.8-0.2c-28.2,0.5-50.8,23.9-50.3,52.1c0.2,14,6.1,26.6,15.4,35.7
		c-3.5,17.9-17.7,21.7-26.9,24.2c-1.9,0.5-3.5,0.9-4.7,1.4c-4.9,2-6,5.8-5.4,8.7c0.8,3.8,4.5,6.7,8.6,6.6c0.4,0,0.8,0,1.2-0.1
		c21.3-3.1,40.2-17.8,50.7-27.6c4.2,1.1,8.7,1.6,13.3,1.5c28.2-0.5,50.8-23.9,50.3-52.1c-0.3-17-8.8-31.9-21.7-41
		c7.1-14.2,9.1-26.8,24.8-48.3c4.8-6.5,11.6-12.6,18.6-18l-17.7-47.9C197.9,342.8,185.4,371.9,183.5,375.6z M179.2,461.4
		c-19.2,0.3-35.1-15-35.4-34.2c-0.3-19.2,15-35.1,34.2-35.4s35.1,15,35.4,34.2C213.8,445.2,198.4,461.1,179.2,461.4z"/>
	<path class="st0" d="M353.8,8c0-1.1-39.3,85.8-62,137.7c-4.8,11.1-10.9,24.3-17.7,38.7l25,64.6C301,243.3,357.1,128.2,353.8,8z"/>
	<path class="st0" d="M406.3,440.8c-1.9-27.2-24.7-48.2-51.9-47.7c-0.8,0-1.6,0.1-2.4,0.1c-6.8-13.4-16.2-38-32.5-75.3
		c-20.7-47.5-99.9-257.5-101.4-261.5C207.4,26.2,201.2,9,198.6,9.1c-0.4,0-1.1-0.2-1.2,0.2c-24.4,100.1,55.8,294.4,58.7,300
		c2.5,4.7,6.8,6.2,11.8,7.9c6.2,2.2,14.7,5.1,26.1,15.5c15.5,14.1,27.6,47.9,35.8,67c-5,2.8-9.5,6.5-13.3,10.9
		c-9,10.3-13.4,23.5-12.5,37.2c1.9,27.2,24.7,48.2,51.9,47.7c0.9,0,1.8-0.1,2.6-0.1C386.9,493.5,408.2,469,406.3,440.8z
		 M357.6,479.1c-0.6,0-1.2,0.1-1.8,0.1c-18.5,0.3-34-13.9-35.3-32.5c-0.6-9.3,2.4-18.3,8.5-25.3s14.6-11.2,23.9-11.9
		c0.6,0,1.2-0.1,1.8-0.1c18.5-0.3,34,13.9,35.3,32.5C391.3,461.1,376.8,477.8,357.6,479.1z"/>
	<circle class="st1" cx="269.7" cy="275.8" r="9.2"/>
	<g>
		<path class="st0" d="M263.6,277.8L263.6,277.8c-0.2-0.5,0.1-1,0.6-1.1l10.4-3.4c0.5-0.2,1,0.1,1.1,0.6l0,0c0.2,0.5-0.1,1-0.6,1.1
			l-10.4,3.4C264.3,278.5,263.8,278.3,263.6,277.8z"/>
		<path class="st0" d="M267.7,269.8L267.7,269.8c0.5-0.2,1,0.1,1.1,0.6l3.4,10.4c0.2,0.5-0.1,1-0.6,1.1l0,0c-0.5,0.2-1-0.1-1.1-0.6
			l-3.4-10.4C266.9,270.5,267.2,270,267.7,269.8z"/>
	</g>
</g>
</svg>
