<?xml version="1.0" encoding="UTF-8"?>
<svg xmlns="http://www.w3.org/2000/svg" xmlns:xlink="http://www.w3.org/1999/xlink" xmlns:svgjs="http://svgjs.com/svgjs" version="1.1" width="512" height="512" x="0" y="0" viewBox="0 0 496 496" style="enable-background:new 0 0 512 512" xml:space="preserve">
  <g>
<g xmlns="http://www.w3.org/2000/svg">
	<g>
		<path d="M488,414.4H358.4c15.2-24.8,28-52,37.6-80h28c40,0,72-32,72-72s-32-72-72-72h-8v-24c0-4.8-3.2-8-8-8H88c-4.8,0-8,3.2-8,8    v46.4c0,71.2,20,141.6,57.6,201.6H8c-4.8,0-8,3.2-8,8c0,22.4,17.6,40,40,40h80v24c0,4.8,3.2,8,8,8h240c4.8,0,8-3.2,8-8v-24h80    c22.4,0,40-17.6,40-40C496,417.6,492.8,414.4,488,414.4z M415.2,238.4h8.8c13.6,0,24,10.4,24,24c0,13.6-10.4,24-24,24h-15.2    C412,270.4,414.4,254.4,415.2,238.4z M404.8,302.4H424c22.4,0,40-17.6,40-40c0-22.4-17.6-40-40-40h-8c0-3.2,0-6.4,0-9.6v-6.4h8    c31.2,0,56,24.8,56,56s-24.8,56-56,56h-23.2C402.4,312.8,404,308,404.8,302.4z M96,174.4h304v32H96V174.4z M96,222.4h304    c-1.6,68-22.4,135.2-60,192H156C118.4,357.6,97.6,290.4,96,222.4z M360,478.4H136v-16h224V478.4z M456,446.4H40    c-10.4,0-19.2-6.4-22.4-16h461.6C475.2,440,466.4,446.4,456,446.4z" fill="#d1d1d1" data-original="#000000" style=""/>
	</g>
</g>
<g xmlns="http://www.w3.org/2000/svg">
	<g>
		<path d="M264,270.4h-32c-26.4,0-48,21.6-48,48c0,26.4,21.6,48,48,48h32c26.4,0,48-21.6,48-48C312,292,290.4,270.4,264,270.4z     M232,286.4h32c11.2,0,21.6,6.4,27.2,16h-25.6c-8.8,0-16.8,3.2-22.4,9.6l-1.6,1.6c-3.2,3.2-7.2,4.8-11.2,4.8H200    C200,300.8,214.4,286.4,232,286.4z M264,350.4h-32c-11.2,0-21.6-6.4-27.2-16h25.6c8.8,0,16.8-3.2,22.4-9.6l1.6-1.6    c3.2-3.2,7.2-4.8,11.2-4.8H296C296,336,281.6,350.4,264,350.4z" fill="#d1d1d1" data-original="#000000" style=""/>
	</g>
</g>
<g xmlns="http://www.w3.org/2000/svg">
	<g>
		<path d="M228,72l-13.6-13.6c-4-4.8-6.4-11.2-6.4-17.6V36c0-6.4,2.4-12.8,7.2-16.8l6.4-6.4L210.4,1.6L204,8c-8,7.2-12,16.8-12,28    v5.6c0,10.4,4,20.8,12,28l12.8,12.8c4.8,4.8,7.2,10.4,7.2,16.8v19.2h16V100C240,89.6,236,79.2,228,72z" fill="#d1d1d1" data-original="#000000" style=""/>
	</g>
</g>
<g xmlns="http://www.w3.org/2000/svg">
	<g>
		<path d="M292,96l-13.6-13.6c-4.8-4.8-7.2-10.4-7.2-16.8V60c0-6.4,2.4-12.8,7.2-16.8l6.4-6.4l-11.2-11.2l-6.4,6.4    C260,39.2,256,48.8,256,60v5.6c0,10.4,4,20.8,12,28l12.8,12.8c4.8,4.8,7.2,10.4,7.2,16.8v19.2h16V124C304,113.6,300,103.2,292,96z    " fill="#d1d1d1" data-original="#000000" style=""/>
	</g>
</g>















</g>
</svg>
