<?xml version="1.0" encoding="UTF-8"?>
<svg xmlns="http://www.w3.org/2000/svg" xmlns:xlink="http://www.w3.org/1999/xlink" xmlns:svgjs="http://svgjs.com/svgjs" version="1.1" width="512" height="512" x="0" y="0" viewBox="0 0 64 64" style="enable-background:new 0 0 512 512" xml:space="preserve">
  <g>
    <g xmlns="http://www.w3.org/2000/svg">
      <path d="m15.999 36v-2.829c-1.163.413-1.999 1.525-1.999 2.829v2.83c.417-.147.799-.387 1.121-.708.566-.568.878-1.321.878-2.122z" fill="#d1d1d1" data-original="#000000" style=""/>
      <path d="m3 60.999h23.999v-37.999h-23.999zm11.999-33.999c4.962 0 8.999 4.037 8.999 9 0 4.962-4.037 9-8.999 9-4.963 0-9-4.037-9-9s4.037-9 9-9z" fill="#d1d1d1" data-original="#000000" style=""/>
      <path d="m14.999 42.999c3.859 0 6.999-3.14 6.999-7s-3.14-7-6.999-7c-3.86 0-7 3.14-7 7s3.14 7 7 7zm-2.999-6.999c0-2.757 2.242-5 4.998-5 .553 0 1 .447 1 1l.001 4c0 1.336-.52 2.591-1.464 3.536s-2.199 1.464-3.535 1.464c0 0 0 0-.001 0-.552 0-.999-.448-.999-1z" fill="#d1d1d1" data-original="#000000" style=""/>
      <path d="m9.999 19h9.999v2h-9.999z" fill="#d1d1d1" data-original="#000000" style=""/>
      <path d="m18.999 7.999c0-.552.447-1 1-1h4.999c.266 0 .521.105.708.293l1.292 1.293 1.586-1.586-2-2h-6.585c-.553 0-1-.448-1-1v-.999h-8v6h8z" fill="#d1d1d1" data-original="#000000" style=""/>
      <path d="m13.998 10.999h2.001v6h-2.001z" fill="#d1d1d1" data-original="#000000" style=""/>
      <path d="m34 16c0-.649-.211-1.281-.6-1.8l-2.4-3.2-2.4 3.2c-.389.519-.6 1.151-.6 1.8 0 1.657 1.343 3 3 3s3-1.343 3-3z" fill="#d1d1d1" data-original="#000000" style=""/>
      <path d="m34.999 31h5v4h-5z" fill="#d1d1d1" data-original="#000000" style=""/>
      <path d="m41.998 31h4.001v4h-4.001z" fill="#d1d1d1" data-original="#000000" style=""/>
      <path d="m47.998 31h4.002v4h-4.002z" fill="#d1d1d1" data-original="#000000" style=""/>
      <path d="m53.999 31h4.999v4h-4.999z" fill="#d1d1d1" data-original="#000000" style=""/>
      <path d="m38.998 36.999h16.002v2h-16.002z" fill="#d1d1d1" data-original="#000000" style=""/>
      <path d="m46 51v2.83c.417-.147.799-.387 1.121-.708.566-.567.878-1.32.878-2.121v-2.829c-1.163.412-1.999 1.524-1.999 2.828z" fill="#d1d1d1" data-original="#000000" style=""/>
      <path d="m33 41v20h27.998v-20zm14 18.999c-4.963 0-9-4.037-9-9s4.037-9 9-9c4.962 0 8.999 4.037 8.999 9s-4.037 9-8.999 9z" fill="#d1d1d1" data-original="#000000" style=""/>
      <path d="m47 44c-3.86 0-7 3.14-7 7 0 3.859 3.14 7 7 7 3.859 0 6.999-3.14 6.999-7s-3.14-7-6.999-7zm1.535 10.535c-.944.944-2.199 1.465-3.535 1.465 0 0 0 0-.001 0-.552 0-.999-.448-.999-1v-4c0-2.757 2.242-5 4.998-5 .553 0 1 .447 1 1l.001 4c0 1.335-.52 2.591-1.464 3.535z" fill="#d1d1d1" data-original="#000000" style=""/>
    </g>
  </g>
</svg>
