<?xml version="1.0" encoding="utf-8"?>
<!-- Generator: Adobe Illustrator 25.0.0, SVG Export Plug-In . SVG Version: 6.00 Build 0)  -->
<svg version="1.1" id="Layer_1" xmlns="http://www.w3.org/2000/svg" xmlns:xlink="http://www.w3.org/1999/xlink" x="0px" y="0px"
	 viewBox="0 0 512 512" style="enable-background:new 0 0 512 512;" xml:space="preserve">
<style type="text/css">
	.st0{fill:#221E20;}
	.st1{fill:#0F1111;}
</style>
<path class="st0" d="M317.7,507.7H194.3c-10.8,0-19.8-8.1-21-18.8l-24.1-216.5h-0.3c-7.5,0-13.6-6.1-13.6-13.6v-15.5
	c0-7.5,6.1-13.6,13.6-13.6h1.6l11.8-39.4c2.3-7.7,9.3-12.9,17.3-12.9h61c1.9,0,3.5,1.2,4.1,3c1.6,4.9,6.2,8.1,11.3,8.1
	c5.1,0,9.7-3.3,11.3-8.1c0.6-1.8,2.3-3,4.1-3h61c8,0,15,5.2,17.3,12.9l11.8,39.4h1.6c7.5,0,13.6,6.1,13.6,13.6v15.5
	c0,7.5-6.1,13.6-13.6,13.6h-0.3l-24.1,216.5C337.5,499.6,328.5,507.7,317.7,507.7z M148.9,238.4c-2.7,0-4.9,2.2-4.9,4.9v15.5
	c0,2.7,2.2,4.9,4.9,4.9h4.2c2.2,0,4.1,1.7,4.3,3.9l24.5,220.3c0.7,6.3,6,11.1,12.4,11.1h123.3c6.4,0,11.7-4.8,12.4-11.1l24.5-220.3
	c0.2-2.2,2.1-3.9,4.3-3.9h4.2c2.7,0,4.9-2.2,4.9-4.9v-15.5c0-2.7-2.2-4.9-4.9-4.9h-4.8c-1.9,0-3.6-1.3-4.2-3.1l-12.8-42.5
	c-1.2-4-4.8-6.7-9-6.7h-58.1c-3.5,6.8-10.5,11.1-18.3,11.1s-14.8-4.4-18.3-11.1h-58.1c-4.2,0-7.8,2.7-9,6.7l-12.8,42.5
	c-0.6,1.8-2.2,3.1-4.2,3.1H148.9z"/>
<path class="st0" d="M363.1,272.4H148.9c-2.4,0-4.3-1.9-4.3-4.3s1.9-4.3,4.3-4.3H363c2.4,0,4.3,1.9,4.3,4.3S365.5,272.4,363.1,272.4
	z"/>
<path class="st0" d="M363.1,238.5H148.9c-2.4,0-4.3-1.9-4.3-4.3c0-2.4,1.9-4.3,4.3-4.3H363c2.4,0,4.3,1.9,4.3,4.3
	C367.4,236.6,365.5,238.5,363.1,238.5z"/>
<g>
	<path class="st1" d="M257.9,181.8c-13.2-33.3,9.4-75.7,9.4-75.7C300.6,47.9,255.2,2.8,255.2,2.8c15.2,17.5,7.9,57.6-3.6,80.8
		c-12,24.3-13.4,38.6-13.4,38.6C233.7,164.3,257.9,181.8,257.9,181.8z"/>
	<path class="st1" d="M226.1,139.9c-7.9-19.9,5.6-45.3,5.6-45.3c20-34.9-7.2-61.9-7.2-61.9c9.1,10.5,4.7,34.5-2.1,48.4
		c-7.2,14.5-8,23.1-8,23.1C211.7,129.4,226.1,139.9,226.1,139.9z"/>
	<path class="st1" d="M291.6,149.3c-7.9-19.9,5.6-45.3,5.6-45.3c20-34.9-7.2-61.9-7.2-61.9c9.1,10.5,4.7,34.5-2.1,48.4
		c-7.2,14.5-8,23.1-8,23.1C277.1,138.8,291.6,149.3,291.6,149.3z"/>
</g>
<g>
	<g>
		<g>
			<path class="st0" d="M221.4,361.6c-10.2,4.6-12.8,21-5.7,36.6c7.1,15.6,21.1,24.4,31.3,19.8c10.2-4.6,12.8-21,5.7-36.6
				C245.6,365.8,231.6,357,221.4,361.6z M236.7,389.2c2.6,14.5,8.7,25.3,8.7,25.8c0,0,0,0,0,0c0,0,0,0,0,0
				c-0.3-0.5-10.9-9.1-13.8-24.6c-2.6-14.5-8.7-25.3-8.7-25.8c0,0,0,0,0,0c0,0,0,0,0,0C223.3,365,233.8,373.6,236.7,389.2z"/>
			<path class="st0" d="M300.4,356.9c-7.2-7-21.6-3.8-32.2,7.1c-10.6,10.9-13.4,25.4-6.3,32.4c7.2,7,21.6,3.8,32.2-7.1
				C304.7,378.4,307.5,363.9,300.4,356.9z M282.5,378.6c-11.2,6.8-18.2,15.5-18.6,15.6c0,0,0,0,0,0c0,0,0,0,0,0
				c0.3-0.4,4-12,16-19.5c11.2-6.8,18.2-15.5,18.6-15.6c0,0,0,0,0,0c0,0,0,0,0,0C298.2,359.6,294.4,371.1,282.5,378.6z"/>
			<path class="st0" d="M253.1,313.7c-9,0.2-16.2,11.4-15.9,25.2c0.2,13.7,7.7,24.8,16.8,24.6c9-0.2,16.2-11.4,15.9-25.2
				C269.7,324.6,262.2,313.6,253.1,313.7z M255.6,339c-2.8,11.5-1.7,21.5-1.8,21.8c0,0,0,0,0,0c0,0,0,0,0,0
				c-0.1-0.4-5.2-10.2-2.3-22.6c2.8-11.5,1.7-21.5,1.8-21.8c0,0,0,0,0,0c0,0,0,0,0,0C253.4,316.8,258.4,326.6,255.6,339z"/>
		</g>
	</g>
</g>
</svg>
