<?xml version="1.0" encoding="UTF-8"?>
<svg xmlns="http://www.w3.org/2000/svg" xmlns:xlink="http://www.w3.org/1999/xlink" width="59pt" height="30pt" viewBox="0 0 59 30" version="1.1">
<g id="surface1">
<path style=" stroke:none;fill-rule:nonzero;fill:rgb(100%,100%,100%);fill-opacity:1;" d="M 56.617188 29.980469 L 2.382812 29.980469 C 1.078125 29.980469 0.0117188 28.894531 0.0117188 27.570312 L 0.0117188 2.429688 C 0.0117188 1.105469 1.078125 0.0195312 2.382812 0.0195312 L 56.617188 0.0195312 C 57.933594 0.0195312 58.988281 1.105469 58.988281 2.429688 L 58.988281 27.558594 C 58.988281 28.894531 57.933594 29.980469 56.617188 29.980469 Z M 56.617188 29.980469 "/>
<path style=" stroke:none;fill-rule:nonzero;fill:rgb(11.372549%,11.372549%,10.588235%);fill-opacity:1;" d="M 56.617188 29.980469 L 2.382812 29.980469 C 1.078125 29.980469 0.0117188 28.894531 0.0117188 27.570312 L 0.0117188 2.429688 C 0.0117188 1.105469 1.078125 0.0195312 2.382812 0.0195312 L 56.617188 0.0195312 C 57.933594 0.0195312 58.988281 1.105469 58.988281 2.429688 L 58.988281 27.558594 C 58.988281 28.894531 57.933594 29.980469 56.617188 29.980469 Z M 2.382812 0.757812 C 1.472656 0.757812 0.734375 1.503906 0.734375 2.429688 L 0.734375 27.558594 C 0.734375 28.484375 1.472656 29.230469 2.382812 29.230469 L 56.617188 29.230469 C 57.527344 29.230469 58.265625 28.484375 58.265625 27.558594 L 58.265625 2.429688 C 58.265625 1.503906 57.527344 0.757812 56.617188 0.757812 Z M 2.382812 0.757812 "/>
<path style=" stroke:none;fill-rule:nonzero;fill:rgb(11.372549%,11.372549%,10.588235%);fill-opacity:1;" d="M 0.371094 20.015625 L 58.628906 20.015625 L 58.628906 20.417969 L 0.371094 20.417969 Z M 0.371094 20.015625 "/>
<path style=" stroke:none;fill-rule:nonzero;fill:rgb(11.372549%,11.372549%,10.588235%);fill-opacity:1;" d="M 5.460938 9.5625 L 5.460938 3.492188 L 6.714844 3.492188 L 6.714844 8.5625 L 8.589844 8.5625 L 8.589844 9.570312 Z M 5.460938 9.5625 "/>
<path style=" stroke:none;fill-rule:nonzero;fill:rgb(11.372549%,11.372549%,10.588235%);fill-opacity:1;" d="M 11.292969 9.667969 C 10.777344 9.667969 10.382812 9.582031 10.101562 9.402344 C 9.824219 9.226562 9.617188 8.992188 9.492188 8.699219 C 9.367188 8.40625 9.292969 8.066406 9.261719 7.6875 C 9.242188 7.3125 9.230469 6.921875 9.230469 6.53125 C 9.230469 6.132812 9.242188 5.742188 9.261719 5.363281 C 9.285156 4.984375 9.355469 4.660156 9.492188 4.367188 C 9.617188 4.070312 9.824219 3.839844 10.101562 3.660156 C 10.382812 3.480469 10.785156 3.398438 11.292969 3.398438 C 11.800781 3.398438 12.207031 3.480469 12.484375 3.660156 C 12.765625 3.839844 12.972656 4.070312 13.097656 4.367188 C 13.222656 4.660156 13.292969 4.984375 13.324219 5.363281 C 13.347656 5.742188 13.355469 6.132812 13.355469 6.53125 C 13.355469 6.933594 13.347656 7.320312 13.324219 7.6875 C 13.304688 8.066406 13.230469 8.40625 13.097656 8.699219 C 12.972656 8.992188 12.765625 9.226562 12.484375 9.402344 C 12.207031 9.582031 11.800781 9.667969 11.292969 9.667969 Z M 11.292969 8.761719 C 11.46875 8.761719 11.617188 8.71875 11.71875 8.636719 C 11.824219 8.550781 11.90625 8.414062 11.957031 8.234375 C 12.007812 8.058594 12.050781 7.824219 12.0625 7.542969 C 12.082031 7.257812 12.082031 6.921875 12.082031 6.53125 C 12.082031 6.144531 12.070312 5.804688 12.0625 5.523438 C 12.039062 5.238281 12.007812 5.007812 11.957031 4.828125 C 11.90625 4.648438 11.824219 4.511719 11.71875 4.429688 C 11.617188 4.34375 11.46875 4.300781 11.292969 4.300781 C 11.117188 4.300781 10.972656 4.34375 10.871094 4.429688 C 10.765625 4.511719 10.683594 4.648438 10.632812 4.828125 C 10.578125 5.007812 10.539062 5.238281 10.527344 5.523438 C 10.507812 5.804688 10.507812 6.144531 10.507812 6.53125 C 10.507812 6.921875 10.515625 7.257812 10.527344 7.542969 C 10.546875 7.824219 10.578125 8.058594 10.632812 8.234375 C 10.683594 8.414062 10.765625 8.550781 10.871094 8.636719 C 10.972656 8.71875 11.117188 8.761719 11.292969 8.761719 Z M 11.292969 8.761719 "/>
<path style=" stroke:none;fill-rule:nonzero;fill:rgb(11.372549%,11.372549%,10.588235%);fill-opacity:1;" d="M 14.363281 9.5625 L 14.363281 3.492188 L 16.050781 3.492188 L 17.644531 7.699219 L 17.667969 7.699219 L 17.667969 3.492188 L 18.835938 3.492188 L 18.835938 9.570312 L 17.191406 9.570312 L 15.554688 5.132812 L 15.53125 5.132812 L 15.53125 9.570312 L 14.363281 9.570312 Z M 14.363281 9.5625 "/>
<path style=" stroke:none;fill-rule:nonzero;fill:rgb(11.372549%,11.372549%,10.588235%);fill-opacity:1;" d="M 19.925781 3.492188 L 22.019531 3.492188 C 22.421875 3.492188 22.753906 3.554688 23.011719 3.691406 C 23.273438 3.828125 23.46875 4.019531 23.605469 4.28125 C 23.75 4.542969 23.84375 4.859375 23.894531 5.226562 C 23.945312 5.597656 23.96875 6.027344 23.96875 6.488281 C 23.96875 6.648438 23.96875 6.828125 23.96875 7.039062 C 23.96875 7.246094 23.957031 7.46875 23.925781 7.699219 C 23.894531 7.929688 23.84375 8.152344 23.769531 8.375 C 23.699219 8.59375 23.582031 8.792969 23.4375 8.960938 C 23.292969 9.128906 23.097656 9.277344 22.859375 9.382812 C 22.621094 9.488281 22.328125 9.550781 21.96875 9.550781 L 19.925781 9.550781 Z M 21.167969 8.636719 L 21.769531 8.636719 C 21.957031 8.636719 22.113281 8.59375 22.226562 8.519531 C 22.339844 8.445312 22.433594 8.320312 22.503906 8.152344 C 22.566406 7.984375 22.621094 7.761719 22.640625 7.5 C 22.660156 7.238281 22.683594 6.910156 22.683594 6.53125 C 22.683594 6.25 22.683594 5.984375 22.671875 5.734375 C 22.660156 5.480469 22.628906 5.257812 22.578125 5.058594 C 22.527344 4.871094 22.433594 4.710938 22.320312 4.597656 C 22.207031 4.480469 22.027344 4.429688 21.820312 4.429688 L 21.179688 4.429688 Z M 21.167969 8.636719 "/>
<path style=" stroke:none;fill-rule:nonzero;fill:rgb(11.372549%,11.372549%,10.588235%);fill-opacity:1;" d="M 26.949219 9.667969 C 26.433594 9.667969 26.039062 9.582031 25.757812 9.402344 C 25.480469 9.226562 25.273438 8.992188 25.148438 8.699219 C 25.023438 8.40625 24.949219 8.066406 24.921875 7.6875 C 24.898438 7.3125 24.890625 6.921875 24.890625 6.53125 C 24.890625 6.132812 24.898438 5.742188 24.921875 5.363281 C 24.941406 4.984375 25.011719 4.660156 25.148438 4.367188 C 25.273438 4.070312 25.480469 3.839844 25.757812 3.660156 C 26.039062 3.480469 26.441406 3.398438 26.949219 3.398438 C 27.457031 3.398438 27.863281 3.480469 28.144531 3.660156 C 28.421875 3.839844 28.628906 4.070312 28.753906 4.367188 C 28.878906 4.660156 28.949219 4.984375 28.980469 5.363281 C 29.003906 5.742188 29.011719 6.132812 29.011719 6.53125 C 29.011719 6.933594 29.003906 7.320312 28.980469 7.6875 C 28.960938 8.066406 28.886719 8.40625 28.753906 8.699219 C 28.628906 8.992188 28.421875 9.226562 28.144531 9.402344 C 27.863281 9.582031 27.46875 9.667969 26.949219 9.667969 Z M 26.949219 8.761719 C 27.128906 8.761719 27.273438 8.71875 27.375 8.636719 C 27.480469 8.550781 27.5625 8.414062 27.613281 8.234375 C 27.664062 8.058594 27.707031 7.824219 27.71875 7.542969 C 27.738281 7.257812 27.738281 6.921875 27.738281 6.53125 C 27.738281 6.144531 27.726562 5.804688 27.71875 5.523438 C 27.695312 5.238281 27.664062 5.007812 27.613281 4.828125 C 27.5625 4.648438 27.480469 4.511719 27.375 4.429688 C 27.273438 4.34375 27.128906 4.300781 26.949219 4.300781 C 26.773438 4.300781 26.628906 4.34375 26.527344 4.429688 C 26.421875 4.511719 26.339844 4.648438 26.289062 4.828125 C 26.234375 5.007812 26.195312 5.238281 26.183594 5.523438 C 26.164062 5.804688 26.164062 6.144531 26.164062 6.53125 C 26.164062 6.921875 26.175781 7.257812 26.183594 7.542969 C 26.203125 7.824219 26.234375 8.058594 26.289062 8.234375 C 26.339844 8.414062 26.421875 8.550781 26.527344 8.636719 C 26.640625 8.71875 26.773438 8.761719 26.949219 8.761719 Z M 26.949219 8.761719 "/>
<path style=" stroke:none;fill-rule:nonzero;fill:rgb(11.372549%,11.372549%,10.588235%);fill-opacity:1;" d="M 30.019531 9.5625 L 30.019531 3.492188 L 31.707031 3.492188 L 33.304688 7.699219 L 33.324219 7.699219 L 33.324219 3.492188 L 34.496094 3.492188 L 34.496094 9.570312 L 32.847656 9.570312 L 31.210938 5.132812 L 31.1875 5.132812 L 31.1875 9.570312 L 30.019531 9.570312 Z M 30.019531 9.5625 "/>
<path style=" stroke:none;fill-rule:nonzero;fill:rgb(11.372549%,11.372549%,10.588235%);fill-opacity:1;" d="M 5.472656 17.578125 L 5.472656 11.496094 L 7.6875 11.496094 C 7.925781 11.496094 8.15625 11.519531 8.363281 11.558594 C 8.578125 11.601562 8.753906 11.675781 8.921875 11.792969 C 9.078125 11.90625 9.203125 12.066406 9.292969 12.277344 C 9.386719 12.476562 9.429688 12.75 9.429688 13.074219 C 9.429688 13.433594 9.347656 13.726562 9.179688 13.957031 C 9.015625 14.191406 8.753906 14.347656 8.414062 14.410156 L 8.414062 14.433594 C 8.632812 14.464844 8.816406 14.527344 8.964844 14.609375 C 9.109375 14.695312 9.222656 14.800781 9.304688 14.9375 C 9.386719 15.074219 9.449219 15.222656 9.480469 15.398438 C 9.511719 15.578125 9.53125 15.769531 9.53125 15.96875 C 9.53125 16.230469 9.5 16.441406 9.429688 16.621094 C 9.355469 16.796875 9.273438 16.945312 9.171875 17.0625 C 9.066406 17.175781 8.941406 17.273438 8.808594 17.335938 C 8.671875 17.398438 8.539062 17.449219 8.394531 17.484375 C 8.257812 17.515625 8.125 17.535156 8 17.546875 C 7.875 17.554688 7.769531 17.554688 7.679688 17.554688 L 5.472656 17.554688 Z M 6.714844 13.980469 L 7.554688 13.980469 C 7.617188 13.980469 7.6875 13.96875 7.769531 13.9375 C 7.84375 13.917969 7.917969 13.875 7.988281 13.8125 C 8.050781 13.75 8.113281 13.675781 8.15625 13.570312 C 8.195312 13.464844 8.21875 13.347656 8.21875 13.203125 C 8.21875 12.980469 8.144531 12.792969 8.007812 12.644531 C 7.875 12.496094 7.699219 12.421875 7.492188 12.421875 L 6.726562 12.421875 Z M 6.714844 16.640625 L 7.410156 16.640625 C 7.472656 16.640625 7.554688 16.640625 7.65625 16.628906 C 7.75 16.621094 7.84375 16.589844 7.9375 16.535156 C 8.03125 16.484375 8.101562 16.398438 8.175781 16.285156 C 8.238281 16.167969 8.277344 16 8.277344 15.789062 C 8.277344 15.515625 8.21875 15.304688 8.101562 15.15625 C 7.988281 15 7.769531 14.925781 7.449219 14.925781 L 6.726562 14.925781 Z M 6.714844 16.640625 "/>
<path style=" stroke:none;fill-rule:nonzero;fill:rgb(11.372549%,11.372549%,10.588235%);fill-opacity:1;" d="M 10.101562 17.578125 L 11.761719 11.496094 L 13.40625 11.496094 L 15.035156 17.578125 L 13.71875 17.578125 L 13.386719 16.230469 L 11.675781 16.230469 L 11.335938 17.578125 Z M 12.515625 12.664062 L 12.496094 12.664062 L 11.925781 15.292969 L 13.117188 15.292969 Z M 12.515625 12.664062 "/>
<path style=" stroke:none;fill-rule:nonzero;fill:rgb(11.372549%,11.372549%,10.588235%);fill-opacity:1;" d="M 17.046875 17.578125 L 15.792969 17.578125 L 15.792969 11.496094 L 18.101562 11.496094 C 18.539062 11.496094 18.878906 11.632812 19.128906 11.898438 C 19.375 12.171875 19.5 12.558594 19.5 13.085938 C 19.5 13.476562 19.417969 13.800781 19.253906 14.074219 C 19.085938 14.347656 18.796875 14.515625 18.390625 14.578125 L 18.390625 14.601562 C 18.453125 14.609375 18.546875 14.632812 18.671875 14.652344 C 18.796875 14.675781 18.910156 14.726562 19.035156 14.800781 C 19.148438 14.875 19.253906 15 19.34375 15.148438 C 19.4375 15.304688 19.480469 15.515625 19.480469 15.789062 C 19.480469 15.882812 19.480469 16.019531 19.480469 16.1875 C 19.480469 16.367188 19.492188 16.546875 19.5 16.726562 C 19.511719 16.914062 19.53125 17.082031 19.542969 17.242188 C 19.5625 17.398438 19.582031 17.503906 19.613281 17.566406 L 18.390625 17.566406 C 18.308594 17.378906 18.269531 17.1875 18.269531 16.988281 C 18.269531 16.789062 18.269531 16.589844 18.269531 16.386719 C 18.269531 16.210938 18.269531 16.042969 18.269531 15.875 C 18.269531 15.714844 18.238281 15.566406 18.183594 15.453125 C 18.132812 15.335938 18.039062 15.230469 17.914062 15.15625 C 17.792969 15.085938 17.613281 15.050781 17.375 15.050781 L 17.054688 15.050781 Z M 17.046875 14.125 L 17.605469 14.125 C 17.730469 14.125 17.832031 14.09375 17.914062 14.042969 C 18 13.988281 18.0625 13.917969 18.113281 13.832031 C 18.164062 13.75 18.195312 13.652344 18.214844 13.539062 C 18.238281 13.433594 18.246094 13.328125 18.246094 13.234375 C 18.246094 12.9375 18.195312 12.738281 18.082031 12.613281 C 17.96875 12.496094 17.8125 12.433594 17.613281 12.433594 L 17.054688 12.433594 Z M 17.046875 14.125 "/>
<path style=" stroke:none;fill-rule:nonzero;fill:rgb(11.372549%,11.372549%,10.588235%);fill-opacity:1;" d="M 20.507812 17.578125 L 20.507812 11.496094 L 22.722656 11.496094 C 22.960938 11.496094 23.191406 11.519531 23.398438 11.558594 C 23.613281 11.601562 23.789062 11.675781 23.957031 11.792969 C 24.113281 11.90625 24.234375 12.066406 24.328125 12.277344 C 24.421875 12.476562 24.464844 12.75 24.464844 13.074219 C 24.464844 13.433594 24.382812 13.726562 24.214844 13.957031 C 24.050781 14.191406 23.789062 14.347656 23.449219 14.410156 L 23.449219 14.433594 C 23.667969 14.464844 23.851562 14.527344 23.996094 14.609375 C 24.144531 14.695312 24.257812 14.800781 24.339844 14.9375 C 24.421875 15.074219 24.484375 15.222656 24.515625 15.398438 C 24.546875 15.578125 24.566406 15.769531 24.566406 15.96875 C 24.566406 16.230469 24.535156 16.441406 24.464844 16.621094 C 24.390625 16.796875 24.308594 16.945312 24.207031 17.0625 C 24.101562 17.175781 23.976562 17.273438 23.84375 17.335938 C 23.707031 17.398438 23.574219 17.449219 23.429688 17.484375 C 23.292969 17.515625 23.160156 17.535156 23.035156 17.546875 C 22.910156 17.554688 22.804688 17.554688 22.714844 17.554688 L 20.507812 17.554688 Z M 21.75 13.980469 L 22.589844 13.980469 C 22.652344 13.980469 22.722656 13.96875 22.804688 13.9375 C 22.878906 13.917969 22.953125 13.875 23.023438 13.8125 C 23.085938 13.75 23.148438 13.675781 23.191406 13.570312 C 23.230469 13.464844 23.25 13.347656 23.25 13.203125 C 23.25 12.980469 23.179688 12.792969 23.042969 12.644531 C 22.910156 12.496094 22.734375 12.421875 22.527344 12.421875 L 21.757812 12.421875 L 21.757812 13.980469 Z M 21.75 16.640625 L 22.445312 16.640625 C 22.503906 16.640625 22.589844 16.640625 22.691406 16.628906 C 22.785156 16.621094 22.878906 16.589844 22.972656 16.535156 C 23.066406 16.484375 23.136719 16.398438 23.210938 16.285156 C 23.273438 16.167969 23.3125 16 23.3125 15.789062 C 23.3125 15.515625 23.25 15.304688 23.136719 15.15625 C 23.023438 15 22.804688 14.925781 22.484375 14.925781 L 21.757812 14.925781 Z M 21.75 16.640625 "/>
<path style=" stroke:none;fill-rule:nonzero;fill:rgb(11.372549%,11.372549%,10.588235%);fill-opacity:1;" d="M 25.519531 17.578125 L 25.519531 11.496094 L 28.785156 11.496094 L 28.785156 12.433594 L 26.773438 12.433594 L 26.773438 13.925781 L 28.628906 13.925781 L 28.628906 14.863281 L 26.773438 14.863281 L 26.773438 16.640625 L 28.859375 16.640625 L 28.859375 17.578125 Z M 25.519531 17.578125 "/>
<path style=" stroke:none;fill-rule:nonzero;fill:rgb(11.372549%,11.372549%,10.588235%);fill-opacity:1;" d="M 30.972656 17.578125 L 29.71875 17.578125 L 29.71875 11.496094 L 32.027344 11.496094 C 32.464844 11.496094 32.804688 11.632812 33.054688 11.898438 C 33.304688 12.171875 33.425781 12.558594 33.425781 13.085938 C 33.425781 13.476562 33.34375 13.800781 33.179688 14.074219 C 33.011719 14.347656 32.722656 14.515625 32.320312 14.578125 L 32.320312 14.601562 C 32.378906 14.609375 32.472656 14.632812 32.597656 14.652344 C 32.722656 14.675781 32.835938 14.726562 32.960938 14.800781 C 33.074219 14.875 33.179688 15 33.273438 15.148438 C 33.363281 15.304688 33.40625 15.515625 33.40625 15.789062 C 33.40625 15.882812 33.40625 16.019531 33.40625 16.1875 C 33.40625 16.367188 33.417969 16.546875 33.425781 16.726562 C 33.4375 16.914062 33.457031 17.082031 33.46875 17.242188 C 33.488281 17.398438 33.511719 17.503906 33.542969 17.566406 L 32.320312 17.566406 C 32.234375 17.378906 32.195312 17.1875 32.195312 16.988281 C 32.195312 16.789062 32.195312 16.589844 32.195312 16.386719 C 32.195312 16.210938 32.195312 16.042969 32.195312 15.875 C 32.195312 15.714844 32.164062 15.566406 32.109375 15.453125 C 32.058594 15.335938 31.964844 15.230469 31.839844 15.15625 C 31.71875 15.085938 31.542969 15.050781 31.304688 15.050781 L 30.980469 15.050781 L 30.980469 17.578125 Z M 30.972656 14.125 L 31.53125 14.125 C 31.65625 14.125 31.757812 14.09375 31.839844 14.042969 C 31.925781 13.988281 31.988281 13.917969 32.039062 13.832031 C 32.089844 13.75 32.121094 13.652344 32.140625 13.539062 C 32.164062 13.433594 32.171875 13.328125 32.171875 13.234375 C 32.171875 12.9375 32.121094 12.738281 32.007812 12.613281 C 31.894531 12.496094 31.738281 12.433594 31.542969 12.433594 L 30.980469 12.433594 Z M 30.972656 14.125 "/>
<path style=" stroke:none;fill-rule:nonzero;fill:rgb(11.372549%,11.372549%,10.588235%);fill-opacity:1;" d="M 37.117188 13.925781 L 37.117188 11.496094 L 38.371094 11.496094 L 38.371094 17.578125 L 37.117188 17.578125 L 37.117188 14.863281 L 35.6875 14.863281 L 35.6875 17.578125 L 34.433594 17.578125 L 34.433594 11.496094 L 35.6875 11.496094 L 35.6875 13.925781 Z M 37.117188 13.925781 "/>
<path style=" stroke:none;fill-rule:nonzero;fill:rgb(11.372549%,11.372549%,10.588235%);fill-opacity:1;" d="M 41.445312 17.671875 C 40.929688 17.671875 40.535156 17.585938 40.253906 17.410156 C 39.976562 17.230469 39.769531 17 39.644531 16.703125 C 39.519531 16.410156 39.449219 16.074219 39.417969 15.695312 C 39.394531 15.316406 39.386719 14.925781 39.386719 14.539062 C 39.386719 14.136719 39.394531 13.75 39.417969 13.371094 C 39.4375 12.992188 39.507812 12.664062 39.644531 12.371094 C 39.769531 12.074219 39.976562 11.84375 40.253906 11.664062 C 40.535156 11.488281 40.9375 11.402344 41.445312 11.402344 C 41.964844 11.402344 42.359375 11.488281 42.640625 11.664062 C 42.917969 11.84375 43.125 12.074219 43.25 12.371094 C 43.375 12.664062 43.445312 12.992188 43.476562 13.371094 C 43.5 13.75 43.507812 14.136719 43.507812 14.539062 C 43.507812 14.9375 43.5 15.324219 43.476562 15.695312 C 43.457031 16.074219 43.386719 16.410156 43.25 16.703125 C 43.125 17 42.917969 17.230469 42.640625 17.410156 C 42.359375 17.585938 41.964844 17.671875 41.445312 17.671875 Z M 41.445312 16.765625 C 41.625 16.765625 41.769531 16.726562 41.871094 16.640625 C 41.976562 16.558594 42.058594 16.421875 42.109375 16.242188 C 42.164062 16.0625 42.203125 15.832031 42.214844 15.546875 C 42.234375 15.261719 42.234375 14.925781 42.234375 14.539062 C 42.234375 14.148438 42.222656 13.8125 42.214844 13.527344 C 42.191406 13.242188 42.164062 13.011719 42.109375 12.832031 C 42.058594 12.652344 41.976562 12.515625 41.871094 12.433594 C 41.769531 12.347656 41.625 12.308594 41.445312 12.308594 C 41.269531 12.308594 41.125 12.347656 41.023438 12.433594 C 40.917969 12.515625 40.835938 12.652344 40.785156 12.832031 C 40.730469 13.011719 40.691406 13.242188 40.679688 13.527344 C 40.660156 13.8125 40.660156 14.148438 40.660156 14.539062 C 40.660156 14.925781 40.671875 15.261719 40.679688 15.546875 C 40.699219 15.832031 40.730469 16.0625 40.785156 16.242188 C 40.835938 16.421875 40.917969 16.558594 41.023438 16.640625 C 41.125 16.726562 41.269531 16.765625 41.445312 16.765625 Z M 41.445312 16.765625 "/>
<path style=" stroke:none;fill-rule:nonzero;fill:rgb(11.372549%,11.372549%,10.588235%);fill-opacity:1;" d="M 46.503906 17.671875 C 45.984375 17.671875 45.59375 17.585938 45.3125 17.410156 C 45.03125 17.230469 44.824219 17 44.699219 16.703125 C 44.578125 16.410156 44.503906 16.074219 44.472656 15.695312 C 44.453125 15.316406 44.441406 14.925781 44.441406 14.539062 C 44.441406 14.136719 44.453125 13.75 44.472656 13.371094 C 44.492188 12.992188 44.566406 12.664062 44.699219 12.371094 C 44.824219 12.074219 45.03125 11.84375 45.3125 11.664062 C 45.59375 11.488281 45.996094 11.402344 46.503906 11.402344 C 47.011719 11.402344 47.414062 11.488281 47.695312 11.664062 C 47.976562 11.84375 48.183594 12.074219 48.308594 12.371094 C 48.429688 12.664062 48.503906 12.992188 48.535156 13.371094 C 48.554688 13.75 48.566406 14.136719 48.566406 14.539062 C 48.566406 14.9375 48.554688 15.324219 48.535156 15.695312 C 48.515625 16.074219 48.441406 16.410156 48.308594 16.703125 C 48.183594 17 47.976562 17.230469 47.695312 17.410156 C 47.414062 17.585938 47.011719 17.671875 46.503906 17.671875 Z M 46.503906 16.765625 C 46.679688 16.765625 46.824219 16.726562 46.929688 16.640625 C 47.03125 16.558594 47.113281 16.421875 47.167969 16.242188 C 47.21875 16.0625 47.261719 15.832031 47.269531 15.546875 C 47.292969 15.261719 47.292969 14.925781 47.292969 14.539062 C 47.292969 14.148438 47.28125 13.8125 47.269531 13.527344 C 47.25 13.242188 47.21875 13.011719 47.167969 12.832031 C 47.113281 12.652344 47.03125 12.515625 46.929688 12.433594 C 46.824219 12.347656 46.679688 12.308594 46.503906 12.308594 C 46.328125 12.308594 46.183594 12.347656 46.078125 12.433594 C 45.976562 12.515625 45.890625 12.652344 45.839844 12.832031 C 45.789062 13.011719 45.746094 13.242188 45.738281 13.527344 C 45.714844 13.8125 45.714844 14.148438 45.714844 14.539062 C 45.714844 14.925781 45.726562 15.261719 45.738281 15.546875 C 45.757812 15.832031 45.789062 16.0625 45.839844 16.242188 C 45.890625 16.421875 45.976562 16.558594 46.078125 16.640625 C 46.183594 16.726562 46.328125 16.765625 46.503906 16.765625 Z M 46.503906 16.765625 "/>
<path style=" stroke:none;fill-rule:nonzero;fill:rgb(11.372549%,11.372549%,10.588235%);fill-opacity:1;" d="M 49.570312 11.496094 L 51.664062 11.496094 C 52.066406 11.496094 52.398438 11.558594 52.660156 11.695312 C 52.917969 11.832031 53.113281 12.023438 53.25 12.285156 C 53.394531 12.550781 53.488281 12.863281 53.539062 13.234375 C 53.589844 13.601562 53.613281 14.03125 53.613281 14.496094 C 53.613281 14.652344 53.613281 14.832031 53.613281 15.042969 C 53.613281 15.253906 53.601562 15.472656 53.570312 15.703125 C 53.539062 15.9375 53.488281 16.15625 53.414062 16.378906 C 53.34375 16.597656 53.226562 16.796875 53.082031 16.96875 C 52.9375 17.144531 52.742188 17.28125 52.503906 17.386719 C 52.265625 17.492188 51.976562 17.554688 51.613281 17.554688 L 49.570312 17.554688 Z M 50.824219 16.640625 L 51.425781 16.640625 C 51.613281 16.640625 51.765625 16.597656 51.882812 16.523438 C 51.996094 16.453125 52.089844 16.324219 52.160156 16.15625 C 52.222656 15.988281 52.273438 15.769531 52.296875 15.503906 C 52.316406 15.242188 52.335938 14.914062 52.335938 14.539062 C 52.335938 14.253906 52.335938 13.988281 52.328125 13.738281 C 52.316406 13.484375 52.285156 13.265625 52.234375 13.066406 C 52.183594 12.875 52.089844 12.71875 51.976562 12.601562 C 51.859375 12.484375 51.683594 12.433594 51.476562 12.433594 L 50.835938 12.433594 Z M 50.824219 16.640625 "/>
<path style=" stroke:none;fill-rule:nonzero;fill:rgb(87.843137%,3.529412%,7.843137%);fill-opacity:1;" d="M 39.363281 26.222656 C 39.363281 26.601562 39.300781 26.90625 39.179688 27.128906 C 39.054688 27.347656 38.898438 27.515625 38.703125 27.644531 C 38.503906 27.757812 38.285156 27.832031 38.046875 27.875 C 37.808594 27.90625 37.570312 27.929688 37.34375 27.929688 C 36.972656 27.929688 36.671875 27.875 36.441406 27.769531 C 36.214844 27.664062 36.039062 27.527344 35.914062 27.347656 C 35.789062 27.171875 35.707031 26.96875 35.675781 26.738281 C 35.632812 26.507812 35.625 26.265625 35.644531 26.011719 L 36.847656 26.011719 C 36.847656 26.148438 36.855469 26.285156 36.867188 26.414062 C 36.878906 26.539062 36.910156 26.644531 36.949219 26.738281 C 36.992188 26.832031 37.0625 26.90625 37.15625 26.960938 C 37.25 27.011719 37.375 27.042969 37.539062 27.042969 C 37.746094 27.042969 37.894531 26.980469 37.996094 26.867188 C 38.101562 26.738281 38.152344 26.582031 38.152344 26.382812 C 38.152344 26.214844 38.089844 26.054688 37.976562 25.929688 C 37.851562 25.804688 37.707031 25.675781 37.519531 25.5625 C 37.34375 25.445312 37.148438 25.328125 36.941406 25.214844 C 36.734375 25.097656 36.535156 24.960938 36.359375 24.804688 C 36.183594 24.644531 36.027344 24.46875 35.902344 24.265625 C 35.777344 24.058594 35.726562 23.816406 35.726562 23.519531 C 35.726562 23.289062 35.757812 23.078125 35.820312 22.878906 C 35.882812 22.679688 35.988281 22.5 36.132812 22.351562 C 36.277344 22.207031 36.472656 22.089844 36.710938 22.003906 C 36.960938 21.921875 37.261719 21.878906 37.632812 21.878906 C 38.214844 21.878906 38.648438 22.015625 38.941406 22.300781 C 39.21875 22.585938 39.34375 23.027344 39.3125 23.636719 L 38.140625 23.636719 C 38.140625 23.53125 38.132812 23.425781 38.121094 23.320312 C 38.109375 23.214844 38.078125 23.121094 38.039062 23.035156 C 37.996094 22.953125 37.945312 22.890625 37.871094 22.835938 C 37.800781 22.785156 37.707031 22.761719 37.582031 22.761719 C 37.386719 22.761719 37.230469 22.816406 37.125 22.921875 C 37.011719 23.027344 36.960938 23.183594 36.960938 23.382812 C 36.960938 23.5625 37.023438 23.71875 37.136719 23.855469 C 37.261719 23.984375 37.40625 24.109375 37.59375 24.214844 C 37.769531 24.320312 37.964844 24.433594 38.171875 24.539062 C 38.378906 24.65625 38.578125 24.78125 38.753906 24.929688 C 38.929688 25.078125 39.085938 25.257812 39.199219 25.464844 C 39.300781 25.65625 39.363281 25.90625 39.363281 26.222656 Z M 39.363281 26.222656 "/>
<path style=" stroke:none;fill-rule:nonzero;fill:rgb(87.843137%,3.529412%,7.843137%);fill-opacity:1;" d="M 39.695312 21.964844 L 40.929688 21.964844 L 41.675781 26.066406 L 41.695312 26.066406 L 42.609375 21.964844 L 44.027344 21.964844 L 44.886719 26.066406 L 44.90625 26.066406 L 45.621094 21.964844 L 46.804688 21.964844 L 45.53125 27.8125 L 44.191406 27.8125 L 43.292969 23.53125 L 43.269531 23.53125 L 42.277344 27.8125 L 40.96875 27.8125 Z M 39.695312 21.964844 "/>
<path style=" stroke:none;fill-rule:nonzero;fill:rgb(87.843137%,3.529412%,7.843137%);fill-opacity:1;" d="M 47.230469 22.953125 C 47.4375 22.835938 47.644531 22.699219 47.828125 22.550781 C 48.027344 22.40625 48.191406 22.238281 48.347656 22.039062 L 49.457031 22.039062 L 49.457031 27.90625 L 48.203125 27.90625 L 48.203125 23.382812 C 48.058594 23.511719 47.890625 23.625 47.726562 23.742188 C 47.5625 23.847656 47.394531 23.953125 47.21875 24.046875 L 47.21875 22.953125 Z M 47.230469 22.953125 "/>
<path style=" stroke:none;fill-rule:nonzero;fill:rgb(87.843137%,3.529412%,7.843137%);fill-opacity:1;" d="M 53.496094 23.164062 L 52.089844 27.917969 L 50.78125 27.917969 L 52.367188 22.953125 L 50.390625 22.953125 L 50.390625 22.046875 L 53.496094 22.046875 Z M 53.496094 23.164062 "/>
</g>
</svg>
