<?xml version="1.0" encoding="utf-8"?>
<!-- Generator: Adobe Illustrator 25.0.0, SVG Export Plug-In . SVG Version: 6.00 Build 0)  -->
<svg version="1.1" id="Layer_1" xmlns="http://www.w3.org/2000/svg" xmlns:xlink="http://www.w3.org/1999/xlink" x="0px" y="0px"
	 viewBox="0 0 569.2 285.2" style="enable-background:new 0 0 569.2 285.2;" xml:space="preserve">
<style type="text/css">
	.st0{fill:#FFFFFF;}
	.st1{fill:#1D1D1B;}
	.st2{fill:#E00914;}
</style>
<path class="st0" d="M546.3,285H22.9C10.3,285,0,274.7,0,262.1v-239C0,10.5,10.3,0.2,22.9,0.2h523.4c12.7,0,22.9,10.3,22.9,22.9V262
	C569.2,274.7,559,285,546.3,285z"/>
<g>
	<path class="st1" d="M546.3,285H22.9C10.3,285,0,274.7,0,262.1v-239C0,10.5,10.3,0.2,22.9,0.2h523.4c12.7,0,22.9,10.3,22.9,22.9
		V262C569.2,274.7,559,285,546.3,285z M22.9,7.2C14.1,7.2,7,14.3,7,23.1V262c0,8.8,7.1,15.9,15.9,15.9h523.4
		c8.8,0,15.9-7.1,15.9-15.9V23.1c0-8.8-7.1-15.9-15.9-15.9H22.9z"/>
	<rect x="3.5" y="190.3" class="st1" width="562.2" height="3.8"/>
	<path class="st1" d="M52.6,90.9V33.2h12.1v48.2h18.1V91L52.6,90.9L52.6,90.9z"/>
	<path class="st1" d="M108.9,91.9c-5,0-8.8-0.8-11.5-2.5s-4.7-3.9-5.9-6.7c-1.2-2.8-1.9-6-2.2-9.6c-0.2-3.6-0.3-7.3-0.3-11
		c0-3.8,0.1-7.5,0.3-11.1c0.2-3.6,0.9-6.7,2.2-9.5c1.2-2.8,3.2-5,5.9-6.7c2.7-1.7,6.6-2.5,11.5-2.5s8.8,0.8,11.5,2.5
		s4.7,3.9,5.9,6.7c1.2,2.8,1.9,5.9,2.2,9.5c0.2,3.6,0.3,7.3,0.3,11.1c0,3.8-0.1,7.5-0.3,11c-0.2,3.6-0.9,6.8-2.2,9.6
		c-1.2,2.8-3.2,5-5.9,6.7C117.7,91.1,113.8,91.9,108.9,91.9z M108.9,83.3c1.7,0,3.1-0.4,4.1-1.2c1-0.8,1.8-2.1,2.3-3.8
		c0.5-1.7,0.9-3.9,1-6.6c0.2-2.7,0.2-5.9,0.2-9.6c0-3.7-0.1-6.9-0.2-9.6c-0.2-2.7-0.5-4.9-1-6.6c-0.5-1.7-1.3-3-2.3-3.8
		s-2.4-1.2-4.1-1.2s-3.1,0.4-4.1,1.2s-1.8,2.1-2.3,3.8s-0.9,3.9-1,6.6c-0.2,2.7-0.2,5.9-0.2,9.6s0.1,6.9,0.2,9.6
		c0.2,2.7,0.5,4.9,1,6.6s1.3,3,2.3,3.8C105.8,82.9,107.2,83.3,108.9,83.3z"/>
	<path class="st1" d="M138.5,90.9V33.2h16.3l15.4,40h0.2v-40h11.3V91h-15.9L150,48.8h-0.2V91h-11.3V90.9z"/>
	<path class="st1" d="M192.2,33.2h20.2c3.9,0,7.1,0.6,9.6,1.9c2.5,1.3,4.4,3.1,5.7,5.6c1.4,2.5,2.3,5.5,2.8,9s0.7,7.6,0.7,12
		c0,1.5,0,3.2,0,5.2s-0.1,4.1-0.4,6.3c-0.3,2.2-0.8,4.3-1.5,6.4s-1.8,4-3.2,5.6s-3.3,3-5.6,4s-5.1,1.6-8.6,1.6h-19.7V33.2z
		 M204.2,82.1h5.8c1.8,0,3.3-0.4,4.4-1.1c1.1-0.7,2-1.9,2.7-3.5c0.6-1.6,1.1-3.7,1.3-6.2s0.4-5.6,0.4-9.2c0-2.7,0-5.2-0.1-7.6
		c-0.1-2.4-0.4-4.5-0.9-6.4c-0.5-1.8-1.4-3.3-2.5-4.4c-1.1-1.1-2.8-1.6-4.8-1.6h-6.2L204.2,82.1L204.2,82.1z"/>
	<path class="st1" d="M260,91.9c-5,0-8.8-0.8-11.5-2.5s-4.7-3.9-5.9-6.7c-1.2-2.8-1.9-6-2.2-9.6c-0.2-3.6-0.3-7.3-0.3-11
		c0-3.8,0.1-7.5,0.3-11.1s0.9-6.7,2.2-9.5c1.2-2.8,3.2-5,5.9-6.7s6.6-2.5,11.5-2.5s8.8,0.8,11.5,2.5s4.7,3.9,5.9,6.7
		c1.2,2.8,1.9,5.9,2.2,9.5c0.2,3.6,0.3,7.3,0.3,11.1c0,3.8-0.1,7.5-0.3,11c-0.2,3.6-0.9,6.8-2.2,9.6c-1.2,2.8-3.2,5-5.9,6.7
		C268.8,91.1,265,91.9,260,91.9z M260,83.3c1.7,0,3.1-0.4,4.1-1.2c1-0.8,1.8-2.1,2.3-3.8c0.5-1.7,0.9-3.9,1-6.6
		c0.2-2.7,0.2-5.9,0.2-9.6c0-3.7-0.1-6.9-0.2-9.6c-0.2-2.7-0.5-4.9-1-6.6c-0.5-1.7-1.3-3-2.3-3.8s-2.4-1.2-4.1-1.2s-3.1,0.4-4.1,1.2
		s-1.8,2.1-2.3,3.8s-0.9,3.9-1,6.6c-0.2,2.7-0.2,5.9-0.2,9.6s0.1,6.9,0.2,9.6c0.2,2.7,0.5,4.9,1,6.6s1.3,3,2.3,3.8
		C257,82.9,258.3,83.3,260,83.3z"/>
	<path class="st1" d="M289.6,90.9V33.2h16.3l15.4,40h0.2v-40h11.3V91h-15.9l-15.8-42.2h-0.2V91h-11.3V90.9z"/>
	<path class="st1" d="M52.7,167.1v-57.8h21.4c2.3,0,4.5,0.2,6.5,0.6c2.1,0.4,3.8,1.1,5.4,2.2c1.5,1.1,2.7,2.6,3.6,4.6
		c0.9,1.9,1.3,4.5,1.3,7.6c0,3.4-0.8,6.2-2.4,8.4s-4.1,3.7-7.4,4.3v0.2c2.1,0.3,3.9,0.9,5.3,1.7s2.5,1.8,3.3,3.1s1.4,2.7,1.7,4.4
		c0.3,1.7,0.5,3.5,0.5,5.4c0,2.5-0.3,4.5-1,6.2s-1.5,3.1-2.5,4.2c-1,1.1-2.2,2-3.5,2.6s-2.6,1.1-4,1.4c-1.3,0.3-2.6,0.5-3.8,0.6
		c-1.2,0.1-2.2,0.1-3.1,0.1H52.7V167.1z M64.7,132.9h8.1c0.6,0,1.3-0.1,2.1-0.4c0.7-0.2,1.4-0.6,2.1-1.2c0.6-0.6,1.2-1.3,1.6-2.3
		s0.6-2.1,0.6-3.5c0-2.1-0.7-3.9-2-5.3s-3-2.1-5-2.1h-7.4L64.7,132.9L64.7,132.9z M64.7,158.2h6.7c0.6,0,1.4,0,2.4-0.1
		c0.9-0.1,1.8-0.4,2.7-0.9c0.9-0.5,1.6-1.3,2.3-2.4c0.6-1.1,1-2.7,1-4.7c0-2.6-0.6-4.6-1.7-6c-1.1-1.5-3.2-2.2-6.3-2.2h-7
		L64.7,158.2L64.7,158.2z"/>
	<path class="st1" d="M97.4,167.1l16-57.8h15.9l15.7,57.8h-12.7l-3.2-12.8h-16.5l-3.3,12.8H97.4z M120.7,120.4h-0.2l-5.5,25h11.5
		L120.7,120.4z"/>
	<path class="st1" d="M164.4,167.1h-12.1v-57.8h22.3c4.2,0,7.5,1.3,9.9,3.8c2.4,2.6,3.6,6.3,3.6,11.3c0,3.7-0.8,6.8-2.4,9.4
		c-1.6,2.6-4.4,4.2-8.3,4.8v0.2c0.6,0.1,1.5,0.3,2.7,0.5s2.3,0.7,3.5,1.4c1.1,0.7,2.1,1.9,3,3.3c0.9,1.5,1.3,3.5,1.3,6.1
		c0,0.9,0,2.2,0,3.8c0,1.7,0.1,3.4,0.2,5.1c0.1,1.8,0.3,3.4,0.4,4.9c0.2,1.5,0.4,2.5,0.7,3.1h-11.8c-0.8-1.8-1.2-3.6-1.2-5.5
		s0-3.8,0-5.7c0-1.7,0-3.3,0-4.9c0-1.5-0.3-2.9-0.8-4s-1.4-2.1-2.6-2.8c-1.2-0.7-2.9-1-5.2-1h-3.1L164.4,167.1L164.4,167.1z
		 M164.4,134.3h5.4c1.2,0,2.2-0.3,3-0.8s1.4-1.2,1.9-2s0.8-1.7,1-2.8c0.2-1,0.3-2,0.3-2.9c0-2.8-0.5-4.7-1.6-5.9
		c-1.1-1.1-2.6-1.7-4.5-1.7h-5.4L164.4,134.3L164.4,134.3z"/>
	<path class="st1" d="M197.8,167.1v-57.8h21.4c2.3,0,4.5,0.2,6.5,0.6c2.1,0.4,3.8,1.1,5.4,2.2c1.5,1.1,2.7,2.6,3.6,4.6
		c0.9,1.9,1.3,4.5,1.3,7.6c0,3.4-0.8,6.2-2.4,8.4c-1.6,2.2-4.1,3.7-7.4,4.3v0.2c2.1,0.3,3.9,0.9,5.3,1.7c1.4,0.8,2.5,1.8,3.3,3.1
		s1.4,2.7,1.7,4.4s0.5,3.5,0.5,5.4c0,2.5-0.3,4.5-1,6.2s-1.5,3.1-2.5,4.2c-1,1.1-2.2,2-3.5,2.6s-2.6,1.1-4,1.4
		c-1.3,0.3-2.6,0.5-3.8,0.6s-2.2,0.1-3.1,0.1h-21.3V167.1z M209.8,132.9h8.1c0.6,0,1.3-0.1,2.1-0.4c0.7-0.2,1.4-0.6,2.1-1.2
		c0.6-0.6,1.2-1.3,1.6-2.3s0.6-2.1,0.6-3.5c0-2.1-0.7-3.9-2-5.3s-3-2.1-5-2.1h-7.4v14.8H209.8z M209.8,158.2h6.7
		c0.6,0,1.4,0,2.4-0.1c0.9-0.1,1.8-0.4,2.7-0.9s1.6-1.3,2.3-2.4c0.6-1.1,1-2.7,1-4.7c0-2.6-0.6-4.6-1.7-6c-1.1-1.5-3.2-2.2-6.3-2.2
		h-7L209.8,158.2L209.8,158.2z"/>
	<path class="st1" d="M246.2,167.1v-57.8h31.5v8.9h-19.4v14.2h17.9v8.9h-17.9v16.9h20.1v8.9H246.2z"/>
	<path class="st1" d="M298.8,167.1h-12.1v-57.8H309c4.2,0,7.5,1.3,9.9,3.8c2.4,2.6,3.6,6.3,3.6,11.3c0,3.7-0.8,6.8-2.4,9.4
		c-1.6,2.6-4.4,4.2-8.3,4.8v0.2c0.6,0.1,1.5,0.3,2.7,0.5s2.3,0.7,3.5,1.4c1.1,0.7,2.1,1.9,3,3.3c0.9,1.5,1.3,3.5,1.3,6.1
		c0,0.9,0,2.2,0,3.8c0,1.7,0.1,3.4,0.2,5.1c0.1,1.8,0.3,3.4,0.4,4.9c0.2,1.5,0.4,2.5,0.7,3.1h-11.8c-0.8-1.8-1.2-3.6-1.2-5.5
		s0-3.8,0-5.7c0-1.7,0-3.3,0-4.9c0-1.5-0.3-2.9-0.8-4s-1.4-2.1-2.6-2.8s-2.9-1-5.2-1h-3.1v24H298.8z M298.8,134.3h5.4
		c1.2,0,2.2-0.3,3-0.8s1.4-1.2,1.9-2s0.8-1.7,1-2.8c0.2-1,0.3-2,0.3-2.9c0-2.8-0.5-4.7-1.6-5.9c-1.1-1.1-2.6-1.7-4.5-1.7h-5.4
		L298.8,134.3L298.8,134.3z"/>
	<path class="st1" d="M358.1,132.4v-23.1h12.1v57.8h-12.1v-25.8h-13.8v25.8h-12.1v-57.8h12.1v23.1H358.1z"/>
	<path class="st1" d="M399.9,168c-5,0-8.8-0.8-11.5-2.5s-4.7-3.9-5.9-6.7c-1.2-2.8-1.9-6-2.2-9.6c-0.2-3.6-0.3-7.3-0.3-11
		c0-3.8,0.1-7.5,0.3-11.1c0.2-3.6,0.9-6.7,2.2-9.5c1.2-2.8,3.2-5,5.9-6.7c2.7-1.7,6.6-2.5,11.5-2.5c5,0,8.8,0.8,11.5,2.5
		s4.7,3.9,5.9,6.7c1.2,2.8,1.9,5.9,2.2,9.5c0.2,3.6,0.3,7.3,0.3,11.1s-0.1,7.5-0.3,11c-0.2,3.6-0.9,6.8-2.2,9.6
		c-1.2,2.8-3.2,5-5.9,6.7S404.9,168,399.9,168z M399.9,159.4c1.7,0,3.1-0.4,4.1-1.2s1.8-2.1,2.3-3.8s0.9-3.9,1-6.6
		c0.2-2.7,0.2-5.9,0.2-9.6s-0.1-6.9-0.2-9.6c-0.2-2.7-0.5-4.9-1-6.6s-1.3-3-2.3-3.8s-2.4-1.2-4.1-1.2s-3.1,0.4-4.1,1.2
		c-1,0.8-1.8,2.1-2.3,3.8c-0.5,1.7-0.9,3.9-1,6.6c-0.2,2.7-0.2,5.9-0.2,9.6s0.1,6.9,0.2,9.6c0.2,2.7,0.5,4.9,1,6.6s1.3,3,2.3,3.8
		S398.2,159.4,399.9,159.4z"/>
	<path class="st1" d="M448.7,168c-5,0-8.8-0.8-11.5-2.5s-4.7-3.9-5.9-6.7c-1.2-2.8-1.9-6-2.2-9.6c-0.2-3.6-0.3-7.3-0.3-11
		c0-3.8,0.1-7.5,0.3-11.1c0.2-3.6,0.9-6.7,2.2-9.5c1.2-2.8,3.2-5,5.9-6.7c2.7-1.7,6.6-2.5,11.5-2.5s8.8,0.8,11.5,2.5
		s4.7,3.9,5.9,6.7c1.2,2.8,1.9,5.9,2.2,9.5c0.2,3.6,0.3,7.3,0.3,11.1s-0.1,7.5-0.3,11c-0.2,3.6-0.9,6.8-2.2,9.6
		c-1.2,2.8-3.2,5-5.9,6.7C457.5,167.2,453.6,168,448.7,168z M448.7,159.4c1.7,0,3.1-0.4,4.1-1.2s1.8-2.1,2.3-3.8s0.9-3.9,1-6.6
		c0.2-2.7,0.2-5.9,0.2-9.6s-0.1-6.9-0.2-9.6c-0.2-2.7-0.5-4.9-1-6.6s-1.3-3-2.3-3.8s-2.4-1.2-4.1-1.2s-3.1,0.4-4.1,1.2
		c-1,0.8-1.8,2.1-2.3,3.8c-0.5,1.7-0.9,3.9-1,6.6c-0.2,2.7-0.2,5.9-0.2,9.6s0.1,6.9,0.2,9.6c0.2,2.7,0.5,4.9,1,6.6s1.3,3,2.3,3.8
		S447,159.4,448.7,159.4z"/>
	<path class="st1" d="M478.3,109.3h20.2c3.9,0,7.1,0.6,9.6,1.9s4.4,3.1,5.7,5.6c1.4,2.5,2.3,5.5,2.8,9c0.5,3.5,0.7,7.6,0.7,12
		c0,1.5,0,3.2,0,5.2s-0.1,4.1-0.4,6.3c-0.3,2.2-0.8,4.3-1.5,6.4c-0.7,2.1-1.8,4-3.2,5.6c-1.4,1.7-3.3,3-5.6,4
		c-2.3,1-5.1,1.6-8.6,1.6h-19.7L478.3,109.3L478.3,109.3z M490.4,158.2h5.8c1.8,0,3.3-0.4,4.4-1.1c1.1-0.7,2-1.9,2.7-3.5
		c0.6-1.6,1.1-3.7,1.3-6.2s0.4-5.6,0.4-9.2c0-2.7,0-5.2-0.1-7.6s-0.4-4.5-0.9-6.4c-0.5-1.8-1.4-3.3-2.5-4.4s-2.8-1.6-4.8-1.6h-6.2
		L490.4,158.2L490.4,158.2z"/>
	<path class="st2" d="M379.8,249.3c0,3.6-0.6,6.5-1.8,8.6c-1.2,2.1-2.7,3.7-4.6,4.9c-1.9,1.1-4,1.8-6.3,2.2
		c-2.3,0.3-4.6,0.5-6.8,0.5c-3.6,0-6.5-0.5-8.7-1.5s-3.9-2.3-5.1-4s-2-3.6-2.3-5.8c-0.4-2.2-0.5-4.5-0.3-6.9h11.6
		c0,1.3,0.1,2.6,0.2,3.8s0.4,2.2,0.8,3.1c0.4,0.9,1.1,1.6,2,2.1s2.1,0.8,3.7,0.8c2,0,3.4-0.6,4.4-1.7c1-1.2,1.5-2.7,1.5-4.6
		c0-1.6-0.6-3.1-1.7-4.3c-1.2-1.2-2.6-2.4-4.4-3.5c-1.7-1.1-3.6-2.2-5.6-3.3s-3.9-2.4-5.6-3.9s-3.2-3.2-4.4-5.1
		c-1.2-2-1.7-4.3-1.7-7.1c0-2.2,0.3-4.2,0.9-6.1c0.6-1.9,1.6-3.6,3-5s3.3-2.5,5.6-3.3c2.4-0.8,5.3-1.2,8.9-1.2c5.6,0,9.8,1.3,12.6,4
		c2.7,2.7,3.9,6.9,3.6,12.7H368c0-1-0.1-2-0.2-3s-0.4-1.9-0.8-2.7s-0.9-1.4-1.6-1.9s-1.6-0.7-2.8-0.7c-1.9,0-3.4,0.5-4.4,1.5
		c-1.1,1-1.6,2.5-1.6,4.4c0,1.7,0.6,3.2,1.7,4.5c1.2,1.2,2.6,2.4,4.4,3.4c1.7,1,3.6,2.1,5.6,3.1c2,1.1,3.9,2.3,5.6,3.7
		s3.2,3.1,4.3,5.1C379.2,243.9,379.8,246.3,379.8,249.3z"/>
	<path class="st2" d="M383,208.8h11.9l7.2,39h0.2l8.8-39h13.7l8.3,39h0.2l6.9-39h11.4l-12.3,55.6h-12.9l-8.7-40.7h-0.2l-9.6,40.7
		h-12.6L383,208.8z"/>
	<path class="st2" d="M455.7,218.2c2-1.1,4-2.4,5.8-3.8c1.9-1.4,3.5-3,5-4.9h10.7v55.8h-12.1v-43c-1.4,1.2-3,2.3-4.6,3.4
		c-1.6,1-3.2,2-4.9,2.9v-10.4H455.7z"/>
	<path class="st2" d="M516.2,220.2l-13.6,45.2H490l15.3-47.2h-19.1v-8.6h30V220.2L516.2,220.2z"/>
</g>
</svg>
