<?xml version="1.0" encoding="utf-8"?>
<!-- Generator: Adobe Illustrator 25.0.0, SVG Export Plug-In . SVG Version: 6.00 Build 0)  -->
<svg version="1.1" id="Layer_1" xmlns="http://www.w3.org/2000/svg" xmlns:xlink="http://www.w3.org/1999/xlink" x="0px" y="0px"
	 viewBox="0 0 448 448" style="enable-background:new 0 0 448 448;" xml:space="preserve">
<style type="text/css">
	.st0{fill:#221E20;}
	.st1{clip-path:url(#SVGID_1_);}
	.st2{fill:#FFFFFF;}
	.st3{fill:#1D1D1B;}
	.st4{fill:none;stroke:#221E20;stroke-miterlimit:10;}
</style>
<g>
	<path class="st0" d="M134.1,38.5c1.9,0,3.5-0.5,3.9-0.6l7.8-1.8c21.9-3.4,30.4-3.9,35.8-3.9c2.7,0,4.8,0.1,7.1,0.3
		c1,0.1,2,0.1,3.1,0.2c8.4,0.4,9,5.6,9,5.7c0,0.1,0.2,5.3,0.2,8.7c0,3.3,2.8,4.5,5.3,4.5c0.1,0,0.1,0,0.2,0h2.2V69h-11.2
		c-2.6,0-4.7,2.1-4.7,4.7v9.2c0,2.6,2.1,4.7,4.7,4.7h50.8c2.6,0,4.7-2.1,4.7-4.7v-9.2c0-2.6-2.1-4.7-4.7-4.7h-14.2V51.5h5.2
		c1.2,0,2-0.6,2.4-1c0.9-1.1,0.8-2.6,0.8-3.1V34.1c0-2.2,1.2-3.6,3-5.9c1.2-1.4,2.5-3.1,3.8-5.3c1-1.7,1.2-3.1,0.6-4.1
		c-0.7-1.3-2.3-1.5-3-1.5c0,0,0,0-0.1,0c-15.3-1.2-29.9-1.8-43.2-1.8c-52.9,0-71.9,9.2-72.6,9.5c-1.7,0.8-2.9,2-3.4,3.4
		c-0.6,1.7-0.1,3.2,0.1,3.8C127.7,36.2,130.1,38.5,134.1,38.5z"/>
	<path class="st0" d="M264,90.1h-83.2c-2.6,0-4.7,2.1-4.7,4.7v22.6c0,2.6,2.1,4.7,4.7,4.7H264c2.6,0,4.7-2.1,4.7-4.7V94.8
		C268.7,92.2,266.6,90.1,264,90.1z"/>
	<path class="st0" d="M320.6,403V175.5c0.1-1.4,1.6-21.2-14.1-29.8c-18.3-10.1-35.5-18-35.7-18.1l-0.2-0.1h-92.9l-0.2,0.1
		c-0.2,0.1-17.4,8-35.7,18.1c-15.7,8.6-14.2,28.4-14.1,29.8V403c-0.1,1.2-1.2,14.1,6,22.1c3.6,4,8.7,6.1,15.1,6.1h150.7
		c6.4,0,11.5-2,15.1-6.1C321.8,417,320.7,404.1,320.6,403z M289.8,412c-20.1,0-36.4,0-36.4,0s39.6-1.3,39.6-15.1
		s8.8-229.9,8.8-229.9l4.4,221.1C306.1,388.2,309.9,412,289.8,412z"/>
	<g>
		<g>
			<g>
				<defs>
					<rect id="SVGID_3_" x="127.7" y="204.7" width="174" height="142.5"/>
				</defs>
				<clipPath id="SVGID_1_">
					<use xlink:href="#SVGID_3_"  style="overflow:visible;"/>
				</clipPath>
				<g class="st1">
					<path class="st2" d="M283,330.1H71.4c-6,0-10.9-4.9-10.9-10.9v-93.9c0-6,4.9-10.9,10.9-10.9h211.7c6,0,10.9,4.9,10.9,10.9v93.9
						C293.9,325.2,289.1,330.1,283,330.1z"/>
					<g>
						<g>
							<path class="st3" d="M285.9,331.5H68.5c-5.2,0-9.5-4.3-9.5-9.5v-99.2c0-5.2,4.3-9.5,9.5-9.5h217.3c5.2,0,9.5,4.3,9.5,9.5V322
								C295.4,327.3,291.1,331.5,285.9,331.5z M68.5,216.2c-3.6,0-6.6,3-6.6,6.6V322c0,3.6,3,6.6,6.6,6.6h217.3c3.6,0,6.6-3,6.6-6.6
								v-99.2c0-3.6-3-6.6-6.6-6.6H68.5z"/>
							<rect x="60.5" y="292.2" class="st3" width="233.5" height="1.6"/>
						</g>
						<g>
							<g>
								<g>
									<path class="st3" d="M80.8,251v-24h5v20h7.5v4H80.8z"/>
									<path class="st3" d="M105.6,251.3c-2.1,0-3.7-0.3-4.8-1c-1.1-0.7-1.9-1.6-2.5-2.8c-0.5-1.2-0.8-2.5-0.9-4s-0.1-3-0.1-4.6
										s0-3.1,0.1-4.6s0.4-2.8,0.9-4s1.3-2.1,2.5-2.8c1.1-0.7,2.7-1,4.8-1c2.1,0,3.7,0.3,4.8,1c1.1,0.7,1.9,1.6,2.5,2.8
										s0.8,2.5,0.9,4s0.1,3,0.1,4.6s0,3.1-0.1,4.6s-0.4,2.8-0.9,4s-1.3,2.1-2.5,2.8S107.6,251.3,105.6,251.3z M105.6,247.8
										c0.7,0,1.3-0.2,1.7-0.5c0.4-0.3,0.7-0.9,1-1.6c0.2-0.7,0.4-1.6,0.4-2.7c0.1-1.1,0.1-2.4,0.1-4c0-1.5,0-2.9-0.1-4
										s-0.2-2-0.4-2.7c-0.2-0.7-0.5-1.2-1-1.6c-0.4-0.3-1-0.5-1.7-0.5s-1.3,0.2-1.7,0.5c-0.4,0.3-0.7,0.9-1,1.6
										c-0.2,0.7-0.4,1.6-0.4,2.7c-0.1,1.1-0.1,2.4-0.1,4c0,1.5,0,2.9,0.1,4s0.2,2,0.4,2.7c0.2,0.7,0.5,1.2,1,1.6
										C104.3,247.6,104.9,247.8,105.6,247.8z"/>
									<path class="st3" d="M80.9,282.6v-24h8.9c1,0,1.9,0.1,2.7,0.3c0.9,0.2,1.6,0.5,2.2,0.9c0.6,0.5,1.1,1.1,1.5,1.9
										s0.5,1.9,0.5,3.1c0,1.4-0.3,2.6-1,3.5s-1.7,1.5-3.1,1.8v0.1c0.9,0.1,1.6,0.4,2.2,0.7c0.6,0.3,1,0.8,1.4,1.3
										c0.3,0.5,0.6,1.1,0.7,1.8c0.1,0.7,0.2,1.4,0.2,2.3c0,1-0.1,1.9-0.4,2.6s-0.6,1.3-1.1,1.8c-0.4,0.5-0.9,0.8-1.5,1.1
										c-0.5,0.3-1.1,0.5-1.6,0.6c-0.6,0.1-1.1,0.2-1.6,0.2s-0.9,0-1.3,0L80.9,282.6L80.9,282.6z M85.9,268.4h3.4
										c0.3,0,0.6,0,0.9-0.1s0.6-0.3,0.9-0.5s0.5-0.5,0.6-0.9c0.2-0.4,0.3-0.9,0.3-1.5c0-0.9-0.3-1.6-0.8-2.2s-1.2-0.9-2.1-0.9H86
										L85.9,268.4L85.9,268.4z M85.9,278.9h2.8c0.3,0,0.6,0,1,0s0.8-0.2,1.1-0.4c0.4-0.2,0.7-0.6,0.9-1c0.3-0.5,0.4-1.1,0.4-1.9
										c0-1.1-0.2-1.9-0.7-2.5s-1.3-0.9-2.6-0.9h-2.9C85.9,272.2,85.9,278.9,85.9,278.9z"/>
									<path class="st3" d="M100.9,282.6l6.6-24h6.6l6.5,24h-5.3l-1.3-5.3h-6.8l-1.4,5.3H100.9z M110.5,263.2L110.5,263.2
										l-2.4,10.4h4.8L110.5,263.2z"/>
								</g>
							</g>
						</g>
					</g>
				</g>
			</g>
		</g>
	</g>
</g>
<line class="st4" x1="128.2" y1="193.8" x2="128.2" y2="328.9"/>
</svg>
