<?xml version="1.0" encoding="utf-8"?>
<!-- Generator: Adobe Illustrator 25.0.0, SVG Export Plug-In . SVG Version: 6.00 Build 0)  -->
<svg version="1.1" id="Layer_1_1_" xmlns="http://www.w3.org/2000/svg" xmlns:xlink="http://www.w3.org/1999/xlink" x="0px" y="0px"
	 viewBox="0 0 512 512" style="enable-background:new 0 0 512 512;" xml:space="preserve">
<style type="text/css">
	.st0{fill:#221E20;}
	.st1{fill:#FFFFFF;}
</style>
<g>
	<path class="st0" d="M495.5,56.8c-7.6-0.7-24.9,25.9-52.5,32.5c-2.5,0.6-5.2,1.7-8.2,2.3c-2.5-17.5-12.4-26-28.7-32.5
		c-27.3-10.9-50.4,8.9-55.5,25.7c-0.6,2-1.1,4.1-1.6,6.2c-2.8-0.4-5.6-0.7-8.3-1.1c-37.9-5.6-66.9,9.8-80.3,17.7
		c-22.1,13.2-46.4,20.2-46.4,20.2s-107.4,15.8-198.9,84.1c4,33.2,18,32.2,18,32.2s188.3-40.3,211.7-51.4c23.3-11.1,6.8-34,9-42.4
		c4.8-18.1,24.2-23.6,45-24.6c10.6-0.5,27.7,1.5,44.5,2.7c-5.3,16.3,0.4,140.7-126.2,233.7c-27.6,20.3-51.6,50.2-27.1,75.8
		c26.7,28,59.5,1.1,59.5,1.1c164.4-96.8,182.8-308.9,184.2-317.9c13.9-4,23.5-10.2,34.5-21.1C476.1,92.2,503.5,57.6,495.5,56.8z
		 M25.9,214c0,0,109.6-68.6,201.7-68.9c3,0,5.6,2.2,6.3,5.2l5.9,25.2C188.5,121.7,25.9,214,25.9,214z"/>
	<ellipse class="st1" cx="389.8" cy="111.7" rx="9.4" ry="9.8"/>
	<g>
		<path class="st0" d="M386.9,117.7L386.9,117.7c-0.4-0.2-0.6-0.8-0.4-1.3l5-10.3c0.2-0.5,0.8-0.7,1.2-0.4l0,0
			c0.4,0.2,0.6,0.8,0.4,1.3l-5,10.3C387.9,117.7,387.3,117.9,386.9,117.7z"/>
		<path class="st0" d="M384,108.6L384,108.6c0.2-0.5,0.8-0.7,1.2-0.4l9.9,5.2c0.4,0.2,0.6,0.8,0.4,1.3l0,0c-0.2,0.5-0.8,0.7-1.2,0.4
			l-9.9-5.2C384,109.7,383.8,109.1,384,108.6z"/>
	</g>
</g>
</svg>
